<svg xmlns="http://www.w3.org/2000/svg" version="1.1" xmlns:xlink="http://www.w3.org/1999/xlink" xmlns:svgjs="http://svgjs.dev/svgjs" width="350" height="450" preserveAspectRatio="none" viewBox="0 0 350 450">
    <g mask="url(&quot;#SvgjsMask1010&quot;)" fill="none">
        <path d="M218.38 325.8L283.33 363.3L283.33 438.3L218.38 475.8L153.43 438.3L153.43 363.3zM153.43 438.3L218.38 475.8L218.38 550.8L153.43 588.3L88.47 550.8L88.47 475.8zM348.29 100.8L413.24 138.3L413.24 213.3L348.29 250.8L283.33 213.3L283.33 138.3z" stroke="#03305d" stroke-width="2"></path>
        <path d="M210.88 325.8 a7.5 7.5 0 1 0 15 0 a7.5 7.5 0 1 0 -15 0zM275.83 363.3 a7.5 7.5 0 1 0 15 0 a7.5 7.5 0 1 0 -15 0zM275.83 438.3 a7.5 7.5 0 1 0 15 0 a7.5 7.5 0 1 0 -15 0zM210.88 475.8 a7.5 7.5 0 1 0 15 0 a7.5 7.5 0 1 0 -15 0zM145.93 438.3 a7.5 7.5 0 1 0 15 0 a7.5 7.5 0 1 0 -15 0zM145.93 363.3 a7.5 7.5 0 1 0 15 0 a7.5 7.5 0 1 0 -15 0zM210.88 550.8 a7.5 7.5 0 1 0 15 0 a7.5 7.5 0 1 0 -15 0zM145.93 588.3 a7.5 7.5 0 1 0 15 0 a7.5 7.5 0 1 0 -15 0zM80.97 550.8 a7.5 7.5 0 1 0 15 0 a7.5 7.5 0 1 0 -15 0zM80.97 475.8 a7.5 7.5 0 1 0 15 0 a7.5 7.5 0 1 0 -15 0zM340.79 100.8 a7.5 7.5 0 1 0 15 0 a7.5 7.5 0 1 0 -15 0zM405.74 138.3 a7.5 7.5 0 1 0 15 0 a7.5 7.5 0 1 0 -15 0zM405.74 213.3 a7.5 7.5 0 1 0 15 0 a7.5 7.5 0 1 0 -15 0zM340.79 250.8 a7.5 7.5 0 1 0 15 0 a7.5 7.5 0 1 0 -15 0zM275.83 213.3 a7.5 7.5 0 1 0 15 0 a7.5 7.5 0 1 0 -15 0zM275.83 138.3 a7.5 7.5 0 1 0 15 0 a7.5 7.5 0 1 0 -15 0z" fill="#03305d"></path>
        <path d="M49.17 170.45L86.41 191.95L86.41 234.95L49.17 256.45L11.93 234.95L11.93 191.95zM123.65 170.45L160.89 191.95L160.89 234.95L123.65 256.45L86.41 234.95L86.41 191.95zM123.65 428.45L160.89 449.95L160.89 492.95L123.65 514.45L86.41 492.95L86.41 449.95zM160.89 363.95L198.13 385.45L198.13 428.45L160.89 449.95L123.65 428.45L123.65 385.45zM198.13 428.45L235.37 449.95L235.37 492.95L198.13 514.45L160.89 492.95L160.89 449.95zM235.37 234.95L272.61 256.45L272.61 299.45L235.37 320.95L198.13 299.45L198.13 256.45zM235.37 363.95L272.61 385.45L272.61 428.45L235.37 449.95L198.13 428.45L198.13 385.45zM347.09 170.45L384.33 191.95L384.33 234.95L347.09 256.45L309.85 234.95L309.85 191.95zM309.85 363.95L347.09 385.45L347.09 428.45L309.85 449.95L272.61 428.45L272.61 385.45zM347.09 428.45L384.33 449.95L384.33 492.95L347.09 514.45L309.85 492.95L309.85 449.95z" stroke="rgba(6, 80, 156, 0.93)" stroke-width="2"></path>
    </g>
    <defs>
        <mask id="SvgjsMask1010">
            <rect width="350" height="450" fill="#ffffff"></rect>
        </mask>
    </defs>
</svg>