<svg xmlns="http://www.w3.org/2000/svg" version="1.1" xmlns:xlink="http://www.w3.org/1999/xlink" xmlns:svgjs="http://svgjs.dev/svgjs" width="350" height="450" preserveAspectRatio="none" viewBox="0 0 350 450">
    <g mask="url(&quot;#SvgjsMask1014&quot;)" fill="none">
        <circle r="4.82" cx="314.59999999999997" cy="263.24" filter="url(#SvgjsFilter1015)" fill="rgba(51, 121, 194, 0.58)"></circle>
        <circle r="4.78" cx="153.35" cy="132.35999999999999" filter="url(#SvgjsFilter1015)" fill="rgba(51, 121, 194, 0.58)"></circle>
        <circle r="5" cx="246.81" cy="289.4" filter="url(#SvgjsFilter1015)" fill="rgba(51, 121, 194, 0.58)"></circle>
        <circle r="3.645" cx="136.50500000000002" cy="320.265" filter="url(#SvgjsFilter1015)" fill="rgba(51, 121, 194, 0.58)"></circle>
        <circle r="3.855" cx="233.20499999999998" cy="39.535" filter="url(#SvgjsFilter1015)" fill="rgba(51, 121, 194, 0.58)"></circle>
        <circle r="4.64" cx="119" cy="205.63" filter="url(#SvgjsFilter1015)" fill="rgba(51, 121, 194, 0.58)"></circle>
        <circle r="5.705" cx="215.01500000000001" cy="426.41499999999996" filter="url(#SvgjsFilter1015)" fill="rgba(51, 121, 194, 0.58)"></circle>
        <circle r="3.53" cx="152.65" cy="372.11999999999995" filter="url(#SvgjsFilter1015)" fill="rgba(51, 121, 194, 0.58)"></circle>
        <circle r="5.495" cx="227.04500000000002" cy="171.675" filter="url(#SvgjsFilter1015)" fill="rgba(51, 121, 194, 0.58)"></circle>
        <circle r="3.965" cx="123.555" cy="374.825" filter="url(#SvgjsFilter1015)" fill="rgba(51, 121, 194, 0.58)"></circle>
        <circle r="3.175" cx="28.815" cy="432.64500000000004" filter="url(#SvgjsFilter1015)" fill="rgba(51, 121, 194, 0.58)"></circle>
        <circle r="3.375" cx="143.495" cy="355.915" filter="url(#SvgjsFilter1015)" fill="rgba(51, 121, 194, 0.58)"></circle>
        <circle r="3.94" cx="55.41" cy="422.1" filter="url(#SvgjsFilter1015)" fill="rgba(51, 121, 194, 0.58)"></circle>
        <circle r="3.18" cx="273.37" cy="231.53" filter="url(#SvgjsFilter1015)" fill="rgba(51, 121, 194, 0.58)"></circle>
        <circle r="3.84" cx="257.84999999999997" cy="39.3" filter="url(#SvgjsFilter1015)" fill="rgba(51, 121, 194, 0.58)"></circle>
        <circle r="3.13" cx="164.69" cy="53.74" filter="url(#SvgjsFilter1015)" fill="rgba(51, 121, 194, 0.58)"></circle>
        <circle r="4.25" cx="103.89" cy="164.78" filter="url(#SvgjsFilter1015)" fill="rgba(51, 121, 194, 0.58)"></circle>
        <circle r="5.225" cx="203.255" cy="391.235" filter="url(#SvgjsFilter1015)" fill="rgba(51, 121, 194, 0.58)"></circle>
        <circle r="3.895" cx="56.295" cy="68.74499999999999" filter="url(#SvgjsFilter1015)" fill="rgba(51, 121, 194, 0.58)"></circle>
        <circle r="5.49" cx="161.63" cy="141.55" filter="url(#SvgjsFilter1015)" fill="rgba(51, 121, 194, 0.58)"></circle>
        <path d="M140.2 316.5L129.4 329.1 114.7 330.2 121.1 316.9 136.8 311.5C136.8 311.5 137 311.4 137 311.4 137.3 311.2 137.4 310.6 137.4 310.2 137.2 309.6 136.5 309.3 136 309.6L122.3 314.3 125.4 307.9 131.5 305.7C131.5 305.7 131.6 305.6 131.6 305.6 132 305.4 132.1 304.8 132 304.4 131.8 303.8 131.2 303.5 130.7 303.8L126.5 305.2 128.9 300.5C129.1 300.1 128.8 299.3 128.4 299.1 127.9 298.7 127.2 299.2 127 299.5L124.7 304.3 123.3 300.1C123.1 299.5 122.5 299.3 122 299.6 121.4 299.8 121.1 300.4 121.4 300.9L123.6 307 120.4 313.3 115.7 299.5C115.5 298.9 114.8 298.7 114.3 299 113.7 299.2 113.4 299.8 113.8 300.3L119.1 316 112.7 329.3 104.3 316.9 107.4 300.5C107.5 300 107.2 299.5 106.6 299.4 106.1 299.3 105.6 299.6 105.5 300.2L102.7 314.6 98.6 308.7 99.8 302.6C99.9 302 99.6 301.5 99 301.4 98.5 301.3 98 301.6 97.9 302.2L97.1 306.3 93.9 301.7C93.8 301.1 93 301.1 92.5 301.4 92 301.8 91.9 302.3 92.3 302.8L95.2 307.1 91 306.3C90.5 306.2 90 306.6 89.9 307.1S90.1 308.2 90.7 308.3L96.8 309.5 100.8 315.4 86.4 312.6C85.8 312.5 85.3 312.9 85.2 313.4 85.1 314 85.4 314.5 86 314.6L102.4 317.7 110.7 330 96 331 83.7 320.5C83.2 320.1 82.6 320.3 82.1 320.6 81.7 321.1 81.9 321.7 82.2 322.2L93.2 331.7 86.1 332.2 81.3 327.9C80.8 327.6 80.2 327.7 79.7 328.1 79.3 328.6 79.5 329.2 79.7 329.5L83 332.3 77.8 332.7C77.3 332.8 76.7 333.3 76.8 333.9 77 334.5 77.3 335 78 334.8L83.2 334.4 80.4 337.7C80 338.2 80.2 338.8 80.4 339.2 80.8 339.4 81.4 339.5 81.7 339.3 81.7 339.3 81.9 339.1 81.9 339.1L86.1 334.3 93.3 333.8 83.8 344.8C83.4 345.3 83.6 346 83.8 346.3 84.2 346.5 84.8 346.6 85.1 346.4 85.1 346.4 85.3 346.3 85.3 346.3L96 333.6 110.8 332.6 104.3 345.9 88.6 351.2C88 351.4 87.8 352.1 88.1 352.6 88.3 353.2 88.9 353.5 89.4 353.1L103.1 348.4 100 354.9 94 357C93.4 357.2 93.1 357.9 93.5 358.4 93.6 359 94.3 359.2 94.8 358.9L98.9 357.5 96.6 362.3C96.4 362.7 96.7 363.4 97.1 363.6 97.4 363.9 97.9 363.8 98.2 363.6 98.4 363.5 98.6 363.4 98.6 363.1L101 358.3 102.3 362.5C102.5 363.1 103.2 363.4 103.7 363 103.7 363 103.8 362.9 103.8 362.9 104.2 362.7 104.3 362.1 104.2 361.7L102 355.7 105.1 349.2 109.9 362.9C110 363.5 110.7 363.8 111.2 363.5 111.2 363.5 111.4 363.4 111.4 363.4 111.7 363.1 111.8 362.6 111.7 362.1L106.4 346.4 112.8 333.1 121.1 345.4 118 361.8C117.9 362.3 118.2 362.8 118.8 362.9 119.4 363 119.8 362.7 120 362.1L122.8 347.8 126.9 353.8 125.7 359.9C125.6 360.5 125.9 361 126.5 361.1S127.5 360.8 127.7 360.3L128.4 356.1 131.4 360.4C131.7 360.9 132.3 361 132.8 360.7 133.3 360.4 133.4 359.8 133 359.3L130.1 355 134.3 355.8C134.5 355.8 134.8 355.9 135.2 355.7S135.5 355.2 135.6 354.9C135.7 354.3 135.4 353.8 134.8 353.7L128.7 352.6 124.7 346.6 139.1 349.4C139.4 349.4 139.7 349.5 140 349.3 140.1 349.1 140.4 348.8 140.4 348.5 140.5 347.9 140.2 347.4 139.6 347.3L123.2 344.2 114.9 331.9 129.7 330.9 142.3 341.6C142.7 341.9 143.3 342 143.6 341.7 143.6 341.7 143.7 341.6 143.7 341.6 144.1 341.1 144 340.5 143.7 340.2L132.7 330.7 139.9 330.2 144.7 334.5C145.1 334.7 145.6 334.8 146 334.6 146 334.6 146.1 334.4 146.1 334.4 146.5 333.9 146.3 333.3 146.1 333L142.8 330.2 148 329.8C148.2 329.7 148.5 329.7 148.6 329.6 149 329.4 149.2 329 149.1 328.5 149 327.9 148.6 327.4 148 327.6L142.7 328 145.5 324.7C145.9 324.2 145.8 323.6 145.5 323.2 145 322.9 144.4 323 144.1 323.3L139.9 328.1 132.7 328.6 142.2 317.6C142.5 317.1 142.4 316.5 142.1 316.1 141.3 316 140.6 316 140.2 316.5Z" fill="rgba(51, 121, 194, 0.58)"></path>
        <path d="M332.1 349.6L327.9 352.7 327.4 349.5C327.4 349.2 327.1 348.9 326.6 348.8 326.2 349 325.9 349.4 326 349.8L326.4 353.7 323.2 356.2 322.4 348C322.2 347.6 321.9 347.3 321.5 347.3 321 347.4 320.7 347.8 320.8 348.1L321.8 357.2 316.7 360.9 316.8 353.7 311.5 358.7 310.8 352.4 318.1 346.9C318.2 347 318.3 346.9 318.3 346.7 318.5 346.5 318.4 346.1 318.2 345.9 318 345.6 317.5 345.6 317.1 345.7L310.6 350.7 310.2 346.6 313.4 344.2C313.6 344.2 313.6 344 313.7 343.9 313.7 343.8 313.7 343.4 313.5 343.2 313.3 342.9 312.8 342.9 312.6 343.1L310 344.9 309.3 339.7C309.3 339.2 308.9 339 308.5 339 308.1 339 307.8 339.4 307.9 339.9L308.4 345 305.6 343.8C305.1 343.6 304.7 343.9 304.6 344.2 304.4 344.6 304.5 345 305 345.2L308.7 346.8 309 350.9 301.6 347.6C301.2 347.4 300.8 347.6 300.6 348 300.5 348.3 300.6 348.8 301 349L309.2 352.6 310 358.8 303.8 355.3 305.4 362.2 299.6 359.7 298.6 350.7C298.5 350.2 298.1 350 297.8 350 297.4 350.1 297.1 350.4 297.1 350.9L298.1 359 294.4 357.4 293.8 353.4C293.9 352.9 293.5 352.6 293 352.7 292.7 352.7 292.3 353.1 292.4 353.6L292.7 356.7 287.9 354.6C287.5 354.4 287.1 354.6 286.9 355S286.9 355.8 287.3 356L292.1 358.1 289.7 359.9C289.2 360.2 289.2 360.7 289.4 361 289.7 361.4 290.2 361.5 290.5 361.1L293.8 358.8 297.5 360.4 290.8 365.2C290.5 365.5 290.5 366 290.7 366.3 291 366.7 291.5 366.8 291.8 366.4L299 361.1 304.8 363.6 298.7 367.1 305.4 369.3 300.4 372.9 292.1 369.4C291.7 369.2 291.3 369.5 291.1 369.7 291 370.2 291.1 370.6 291.5 370.7L299.1 374 295.7 376.5 292 374.9C291.6 374.7 291.2 374.8 291 375.3 290.9 375.5 291 376.1 291.4 376.2L294.3 377.5 290.2 380.6C289.7 380.9 289.7 381.4 290 381.7 290.3 382 290.7 382.1 291 381.8L295.3 378.7 295.7 381.9C295.7 382.2 296.1 382.5 296.4 382.5 296.7 382.5 297 382.3 297 382.1 297.1 382 297.2 381.9 297.1 381.7L296.7 377.7 299.9 375.2 300.7 383.4C300.9 383.8 301.2 384.1 301.6 384.1 301.9 384.1 302.2 383.9 302.3 383.6 302.4 383.5 302.4 383.5 302.3 383.3L301.3 374.2 306.4 370.5 306.3 377.7 311.6 372.8 312.3 379 305 384.5C304.8 384.7 304.6 385.1 304.9 385.5 305.1 385.8 305.6 385.8 306 385.7L312.6 380.7 312.9 384.8 309.7 387.2C309.3 387.3 309.3 387.8 309.6 388.2 309.8 388.5 310.3 388.5 310.7 388.4L313.1 386.5 313.8 391.7C313.8 392.2 314.2 392.4 314.7 392.4 314.9 392.3 315.1 392.1 315.2 392 315.2 391.8 315.3 391.7 315.2 391.5L314.7 386.4 317.6 387.6C318 387.8 318.4 387.5 318.5 387.2L318.5 387.2C318.7 386.8 318.6 386.4 318.2 386.2L314.4 384.6 314.1 380.5 321.5 383.8C321.9 384 322.3 383.8 322.5 383.4S322.5 382.6 322.1 382.4L313.9 378.8 313.1 372.6 319.3 376.1 317.7 369.2 323.5 371.7 324.5 380.7C324.6 381.2 325 381.4 325.4 381.4 325.7 381.3 326 381 326 380.5L325.1 372.4 328.7 374 329.3 378C329.2 378.5 329.6 378.8 330.1 378.7 330.4 378.7 330.8 378.3 330.8 377.8L330.4 374.7 335.2 376.8C335.6 377 336 376.8 336.2 376.4S336.2 375.6 335.8 375.4L331 373.3 333.4 371.5C333.6 371.4 333.7 371.2 333.7 371.1 333.9 370.8 333.8 370.6 333.7 370.4 333.4 370 332.9 369.9 332.6 370.3L329.3 372.6 325.6 371 332.3 366.2C332.3 366.1 332.4 365.9 332.5 365.8 332.6 365.5 332.5 365.3 332.4 365.1 332.1 364.7 331.7 364.6 331.3 365L324.1 370.3 318.3 367.8 324.4 364.3 317.7 362.2 322.7 358.5 331 362C331.4 362.2 331.8 361.9 332 361.7 332.1 361.2 332 360.9 331.6 360.7L324.1 357.4 327.4 354.9 331.1 356.5C331.5 356.7 331.9 356.6 332.1 356.1S332.1 355.3 331.7 355.2L328.8 353.9 332.9 350.8C333.1 350.7 333.2 350.6 333.2 350.4 333.3 350.3 333.3 350 333.1 349.7 332.9 349.5 332.4 349.3 332.1 349.6ZM320.8 364.7L315.8 367.6 317.1 373.2 312 370.3 307.8 374.2 307.7 368.5 302.3 366.7 307.3 363.8 306 358.2 311 361 315.3 357.2 315.2 362.9 320.8 364.7Z" fill="rgba(51, 121, 194, 0.58)"></path>
        <path d="M242.8 439.8L241.3 433.7 245.4 434.7C245.8 434.9 246.4 434.6 246.6 434 246.6 433.5 246.4 432.9 245.9 432.8L240.6 431.3 239.2 425.7 250.1 428.7C250.8 428.8 251.3 428.5 251.3 428 251.6 427.4 251.3 426.8 250.6 426.7L238.6 423.4 237.2 418.3 245.9 409.7 250.4 410.9 253.6 423.7C253.8 423.9 253.9 424 254 424.2 254.2 424.3 254.6 424.5 254.9 424.5 255.6 424.3 255.9 423.7 255.6 423.2L252.7 411.4 258.2 413 259.9 419C259.7 419.1 259.9 419.2 260 419.4 260.3 419.7 260.7 419.8 261.1 419.7 261.6 419.5 261.8 419 261.8 418.4L260.4 413.6 267.4 415.5C267.8 415.6 268.4 415.3 268.6 414.8 268.6 414.2 268.4 413.6 267.9 413.5L261.4 411.8 264.4 408.8C264.9 408.4 264.7 407.7 264.4 407.4 264 407 263.3 406.8 262.9 407.2L259 411 253.5 409.5 261.5 401.6C261.9 401.1 261.9 400.6 261.5 400.2 261.1 399.7 260.5 399.7 260.1 400.1L251.3 408.9 246.5 407.7 243.4 395.8 246.7 392.6 259 395.9C259.5 396.2 260.2 395.8 260.2 395.2 260.5 394.6 260.1 394.2 259.5 393.9L248.4 390.9 252.5 386.8 258 388.4C258.4 388.5 259.1 388.1 259.3 387.7S259 386.6 258.4 386.3L254.2 385.1 259.2 380.2C259.6 379.8 259.5 379.1 259 378.6 258.8 378.4 258 378.2 257.6 378.6L252.6 383.6 251.4 379.2C251.3 378.8 250.8 378.3 250.1 378.5 249.7 378.6 249.3 379.3 249.4 379.7L250.9 385.3 246.8 389.3 243.9 378.2C243.6 377.6 243.2 377.2 242.5 377.3 242.1 377.4 241.6 378.2 241.8 378.6L245.1 391 241.9 394.3 230 391.1 228.9 386.3 237.7 377.6C238.1 377.2 238.1 376.6 237.7 376.2 237.3 375.7 236.6 375.6 236.1 376L228.2 383.9 226.6 378.4 230.5 374.6C230.9 374.2 230.9 373.6 230.5 373.2 230.1 372.7 229.5 372.7 229.1 373.2L226.1 376.1 224.4 369.6C224.3 369.2 223.6 368.7 223.1 368.9 222.6 369.2 222.2 369.6 222.4 370.2L224.1 377 219.4 375.7C218.9 375.7 218.3 375.9 218.2 376.4 218 376.8 218.2 377.2 218.4 377.5 218.4 377.5 218.6 377.6 218.9 377.6L224.8 379.4 226.3 384.9 214.6 381.9C214 381.6 213.5 381.9 213.3 382.6 213.3 382.8 213.3 383.1 213.6 383.4 213.8 383.6 213.9 383.7 214 383.8L226.9 387.1 228 391.7 219.3 400.3 214.3 398.8 211.1 386.8C210.9 386.1 210.4 385.8 209.8 386.1 209.2 386.1 208.9 386.7 209.1 387.4L212 398.3 206.3 396.8 205 391.4C204.8 391 204.3 390.7 203.7 390.7 203.1 391 202.7 391.4 203 392L203.9 396.1 197.9 394.5C197.3 394.2 196.9 394.7 196.6 395.2 196.6 395.5 196.7 395.9 197 396.2 197 396.2 197.2 396.4 197.3 396.5L203.8 398.2 200.2 401.7C200 402 199.8 402.7 200.2 403.2 200.7 403.6 201.4 403.4 201.7 403.2L206.1 398.8 211.7 400.2 203 408.8C202.6 409.3 202.8 410 203.2 410.4S204.2 410.8 204.6 410.4L214.1 401 218.8 402.2 221.8 414.1 218.1 417.8 205.7 414.4C205.1 414.4 204.6 414.6 204.3 415.2 204.3 415.5 204.4 415.9 204.7 416.2 204.9 416.3 205 416.5 205.3 416.5L216.4 419.5 212.3 423.6 206.7 422.1C206.2 422 205.7 422.3 205.4 422.8 205.4 423.4 205.7 424 206.1 424.1L210.6 425.3 206.1 429.8C205.8 430.1 205.8 430.9 206.1 431.2 206.5 431.6 207.3 431.6 207.6 431.3L212.2 426.8 213.1 431.2C213.3 431.4 213.4 431.5 213.6 431.6 213.8 431.9 214.3 432.1 214.6 432.1 215.1 431.8 215.4 431.2 215.4 430.7L213.9 425.1 218 421.1 220.9 432.2C221.1 432.9 221.6 433.2 222 433.1 222.8 433 223 432.4 223 431.8L219.7 419.4 223.4 415.7 235.3 418.9 236.5 423.5 227 433C226.6 433.4 226.6 434 227 434.4 227.4 434.8 228 434.8 228.4 434.4L237.1 425.8 238.5 431.5 234.1 435.8C233.8 436.1 233.8 437 234.2 437.4 234.6 437.8 235.3 437.7 235.6 437.4L239.2 433.9 240.8 440.4C241 440.5 241 440.5 241.1 440.7 241.4 440.9 241.8 441.1 242.1 441.1 242.7 440.8 242.9 440.2 242.8 439.8ZM225.1 414L223.8 413.6 223.5 412.4 221 402.8 220.8 401.7 221.6 400.8 228.6 393.9 229.4 393.1 230.5 393.4 240.2 396 241.3 396.3 241.7 397.5 244.1 407 244.5 408.3 243.6 409.1 236.7 416 235.8 416.9 234.6 416.5 225.1 414Z" fill="rgba(51, 121, 194, 0.58)"></path>
        <path d="M253.8 191L262.5 204.4 261.2 210 258.2 205.5C258 204.9 257.4 204.9 256.8 205.1 256.5 205.4 256.3 206.1 256.6 206.4L260.6 212.7 259.4 218.4 255.2 214.5 254.9 207C254.9 207 254.9 206.8 254.9 206.8 254.7 206.4 254.2 206.2 253.8 206.1 253.2 206.3 252.9 206.6 252.9 207.2L253.2 212.6 249 208.7 248 192.8C248 192.8 248.2 192.6 248.2 192.6 248.1 192.2 247.6 191.9 247.1 191.9 246.5 191.9 246 192.4 246.2 193L246.9 206.8 241.6 202.2 241.3 196C241.3 196 241.3 196 241.3 195.8 241.1 195.5 240.8 195.1 240.4 195.1 239.8 195.3 239.3 195.6 239.3 196.3L239.6 200.4 235.7 197C235.4 196.5 234.8 196.7 234.5 197 234 197.3 234 198 234.5 198.4L238.2 201.9 234.2 201.9C233.6 202.1 233.1 202.5 233.3 203 233.3 203.7 233.6 204 234.2 204L240.4 203.7 245.5 208.3 231.4 209.1C231 209 230.5 209.6 230.5 210.2 230.7 210.6 231 211.1 231.7 211.1L247.5 210.2 251.7 214.1 246.4 214.4C245.7 214.4 245.5 214.9 245.5 215.5 245.4 215.9 246 216.4 246.4 216.5L253.8 216 258.2 219.8 252.7 221.6 246.1 218.2C245.6 218 245.1 218.1 244.8 218.7 244.5 219 244.7 219.7 245.2 220L250 222.4 244.5 224.2 230.3 216.8C229.8 216.5 229.3 216.7 229 217.2 228.7 217.7 228.9 218.3 229.4 218.6L241.8 225.1 235.4 227.2 229.8 224.3C229.3 224.1 228.7 224.2 228.5 224.7 228.2 225.2 228.4 225.8 228.9 226.1L232.5 228.1 227.7 229.6C227.2 229.8 226.9 230.3 227.1 230.9 227.3 231.4 227.8 231.7 228.4 231.5L233.1 230 231.3 233.5C231 234 231.2 234.6 231.7 234.8S232.8 234.9 233.1 234.4L235.8 229.1 242.4 227 236.1 239.3C235.9 239.8 236 240.4 236.5 240.6 237 240.9 237.6 240.7 237.9 240.2L245.1 226.1 250.6 224.3 248.2 229.1C247.9 229.6 248.1 230.2 248.6 230.5 249.1 230.7 249.7 230.5 249.9 230L253.3 223.5 258.6 221.8 257.4 227.2 251.2 231.3C250.9 231.6 250.7 232.3 251 232.6 251.4 233.1 251.8 233.2 252.4 233L256.9 230.1 255.7 235.5 242.3 244.2C241.8 244.6 241.7 245.1 241.9 245.6 242.3 246.1 242.9 246.1 243.3 246L255.2 238.4 253.6 245.2 248.5 248.5C248 248.7 248 249.4 248.1 249.9 248.5 250.3 249.1 250.4 249.7 250.1L253 248 252 252.9C251.8 253.4 252.1 253.9 252.8 254.1 253.3 254.2 253.8 253.8 253.9 253.3L255 248.4 257.2 251.9C257.5 252.4 258.2 252.4 258.5 252.1 259.1 251.9 259.1 251.4 259 251.1 258.9 250.9 258.9 250.9 258.9 250.7L255.6 245.6 257.2 238.8 264.7 250.5C264.9 251.1 265.5 251.1 266.1 250.9 266.4 250.6 266.5 250.1 266.4 249.7 266.3 249.6 266.3 249.6 266.3 249.6L257.7 235.9 258.9 230.5 261.8 235C262.2 235.5 262.7 235.6 263.2 235.4 263.5 235.1 263.8 234.6 263.7 234.2 263.6 234 263.6 234 263.6 233.8L259.4 227.6 260.6 222.2 264.8 225.9 265.3 233.3C265.3 233.9 265.8 234.4 266.3 234.4 266.8 234.3 267.3 233.9 267.2 233.3L266.9 227.9 271.2 231.6 272 247.7C271.9 248.2 272.5 248.6 272.9 248.7 273.5 248.5 274 248.1 274 247.5L273.4 233.6 278.4 238.3 278.7 244.3C278.7 244.9 279.2 245.4 279.8 245.2 280.3 245.3 280.8 244.9 280.8 244.3L280.5 240.2 284.3 243.5C284.6 243.9 285.3 243.9 285.8 243.5 285.9 243.2 286 242.8 285.9 242.4 285.9 242.4 285.8 242.2 285.7 242L281.9 238.7 286 238.4C286.5 238.4 286.9 237.9 287 237.4 286.9 237.2 286.9 237.2 286.9 237.2 286.7 236.7 286.2 236.4 285.9 236.5L279.8 236.8 274.6 232.2 288.6 231.4C289.2 231.3 289.5 231 289.5 230.3 289.5 230.3 289.5 230.1 289.5 230.1 289.3 229.7 289 229.4 288.4 229.4L272.4 230.1 268.3 226.4 273.7 226.2C274.3 226 274.8 225.6 274.6 225 274.8 225 274.7 224.8 274.7 224.8 274.6 224.4 274.1 224.1 273.7 224.1L266.2 224.6 262.1 220.7 267.4 219 273.9 222.3C274.4 222.6 275.2 222.3 275.4 221.8 275.5 221.4 275.3 220.8 275 220.5L270 218.1 275.6 216.3 289.7 223.6C290.2 223.8 290.7 223.6 291 223.1 291.3 222.6 291.1 222.1 290.6 221.8L278.2 215.5 284.9 213.3 290.2 216C290.7 216.3 291.3 216.1 291.5 215.6S291.6 214.5 291.1 214.3L287.6 212.5 292.3 210.9C292.9 210.7 293.2 210.2 293 209.7 292.8 209.1 292.3 208.8 291.7 209L287 210.6 288.7 206.8C288.8 206.6 289 206.3 288.9 206.2 288.8 206 288.5 205.6 288.3 205.5 287.8 205.3 287.2 205.4 286.9 205.9L284.3 211.4 277.6 213.6 283.9 201C284 200.8 284.1 200.5 284.1 200.3 284 200.2 283.7 199.8 283.5 199.7 283 199.4 282.4 199.6 282.1 200.1L275 214.4 269.4 216.2 272.1 211.4C272.2 211.1 272.1 210.7 272 210.5 272 210.3 271.9 210.1 271.6 210 271.1 209.8 270.4 210 270.3 210.4L266.8 217.1 261.4 218.8 262.6 213.1 268.9 209.2C269.2 208.9 269.5 208.4 269.3 208 269.3 207.8 269.3 207.8 269.1 207.9 268.9 207.3 268.2 207.1 267.7 207.5L263.2 210.4 264.3 204.8 277.9 196.2C278.3 195.9 278.3 195.5 278.2 195.1 278.1 194.9 278.1 194.9 278.1 194.9 277.8 194.4 277.3 194.1 276.7 194.5L264.9 202.1 266.5 195.3 271.5 192C272 191.6 272.1 191.2 272 190.8 272 190.8 271.9 190.6 271.9 190.6 271.5 190.1 270.9 190.1 270.5 190.2L267.1 192.6 268.2 187.6C268.2 187.4 268.1 187.2 268 187 268 186.8 267.7 186.5 267.4 186.4 266.8 186.4 266.2 186.6 266.2 187.2L265.1 192.2 262.9 188.7C262.5 188.2 261.9 188.2 261.5 188.3 261 188.7 261 189.3 261.2 189.9L264.5 194.9 263.1 201.6 255.5 190C255.2 189.5 254.5 189.3 254.2 189.6 253.6 190 253.4 190.5 253.8 191Z" fill="rgba(51, 121, 194, 0.58)"></path>
        <path d="M125.2 12L130.6 5.7 132.9 5.4 135.8 9.6 134.8 11.8 127 14.5C126.9 14.6 126.9 14.6 126.8 14.6 126.7 14.8 126.6 14.9 126.7 15.3 126.8 15.5 127 15.6 127.3 15.5L134.2 13.1 132.6 16.3 129.6 17.4C129.6 17.4 129.6 17.5 129.6 17.5 129.4 17.6 129.3 17.8 129.4 18.1 129.4 18.3 129.7 18.5 130 18.4L132 17.7 130.9 20.1C130.8 20.3 130.9 20.6 131.1 20.8S131.7 20.8 131.9 20.5L133 18.2 133.7 20.1C133.8 20.4 134.1 20.5 134.4 20.4 134.6 20.3 134.8 20.1 134.7 19.8L133.6 16.8 135.2 13.5 137.6 20.3C137.7 20.6 138 20.7 138.3 20.7 138.5 20.5 138.7 20.3 138.6 20L135.7 12.2 136.8 10 141.7 9.6 143.1 11.6 141.7 19.7C141.7 20 141.8 20.3 142.1 20.3S142.7 20.2 142.7 19.9L143.9 12.7 146 15.8 145.5 18.8C145.4 19.1 145.6 19.3 145.9 19.5S146.5 19.4 146.5 19.1L146.8 16.9 148.4 19.1C148.5 19.4 148.9 19.4 149.2 19.2 149.4 19 149.4 18.7 149.3 18.5L147.7 16.3 149.8 16.7C150.2 16.8 150.4 16.6 150.4 16.2 150.4 16 150.3 15.7 150 15.7L146.9 15.1 144.8 12.1 152 13.4C152.2 13.5 152.6 13.3 152.6 13S152.5 12.5 152.2 12.4L144 10.9 142.6 9 144.8 4.4 147.1 4.3 153.4 9.6C153.7 9.8 154 9.7 154.2 9.5 154.4 9.3 154.3 9 154.2 8.7L148.6 4.1 152.2 3.8 154.6 5.9C154.9 6.1 155.2 6 155.4 5.8 155.5 5.6 155.5 5.2 155.3 5.1L153.7 3.7 156.3 3.4C156.6 3.4 156.7 3.2 156.8 2.9 156.7 2.6 156.5 2.4 156.2 2.4L153.6 2.7 155 1C155.1 0.8 155.1 0.4 154.9 0.3 154.7 0.1 154.5 0.1 154.2 0.3 154.2 0.3 154.2 0.3 154.2 0.3L152.1 2.8 148.5 3.1 153.2-2.5C153.3-2.8 153.4-3 153.1-3.2 152.9-3.4 152.7-3.4 152.5-3.3 152.4-3.2 152.4-3.2 152.4-3.2L147 3.2 144.7 3.4 141.8-0.8 142.8-2.8 150.6-5.8C150.9-5.8 151-6.1 151-6.3 150.9-6.6 150.5-6.8 150.2-6.7L143.4-4.2 144.9-7.5 147.9-8.6C148.2-8.7 148.4-9 148.2-9.2 148.2-9.5 147.8-9.6 147.6-9.6L145.6-8.8 146.7-11.2C146.8-11.5 146.7-11.8 146.4-12 146.3-12 146.1-12 145.9-11.8 145.8-11.8 145.8-11.8 145.8-11.6L144.7-9.3 143.9-11.3C143.8-11.6 143.5-11.6 143.3-11.6 143.2-11.5 143.2-11.5 143.1-11.5 143-11.4 142.9-11.2 142.9-10.9L144-7.9 142.5-4.7 140-11.5C139.9-11.8 139.6-12 139.4-11.8 139.2-11.8 139.2-11.8 139.1-11.8 139-11.6 138.9-11.4 139-11.1L141.9-3.3 140.9-1.2 135.8-0.8 134.5-2.7 136-10.9C136-11.2 135.8-11.5 135.5-11.5S134.9-11.4 134.9-11.1L133.7-3.9 131.6-6.8 132.1-10C132.1-10.3 132-10.5 131.7-10.6 131.4-10.6 131.2-10.4 131.1-10.2L130.7-8.1 129.2-10.3C129.1-10.5 128.7-10.6 128.5-10.4 128.2-10.2 128.2-9.8 128.3-9.7L129.8-7.5 127.7-7.8C127.6-7.8 127.5-7.9 127.4-7.8 127.2-7.7 127.2-7.6 127.2-7.4 127.1-7.1 127.3-6.9 127.6-6.8L130.7-6.2 132.8-3.3 125.6-4.6C125.5-4.6 125.4-4.6 125.2-4.5 125.1-4.4 125-4.4 125-4.2 125-3.9 125.2-3.6 125.5-3.6L133.6-2 134.9-0.2 132.8 4.4 130.5 4.7 124.1-0.8C123.9-0.9 123.6-0.9 123.5-0.8 123.4-0.8 123.4-0.8 123.5-0.7 123.2-0.5 123.2-0.2 123.5 0L129 4.7 125.4 5 123 3C122.8 2.9 122.5 2.9 122.4 3 122.4 3 122.3 3.1 122.3 3.1 122 3.2 122.1 3.6 122.3 3.8L124 5.2 121.4 5.4C121.2 5.4 121.1 5.4 121.1 5.5 120.9 5.6 120.8 5.8 120.9 5.9 120.9 6.2 121.1 6.4 121.4 6.5L124 6.2 122.7 7.8C122.5 8 122.5 8.4 122.7 8.6 122.9 8.7 123.3 8.7 123.4 8.5L125.5 6.1 129.1 5.8 124.4 11.3C124.2 11.6 124.3 11.9 124.5 12.1 124.7 12.2 125 12.2 125.2 12ZM136.3 8.5L134.1 5.3 133.8 4.8 134 4.3 135.6 0.8 135.9 0.2 136.5 0.2 140.3-0.1 140.9-0.2 141.2 0.3 143.5 3.5 143.8 4 143.6 4.5 142 8 141.7 8.5 141 8.6 137.3 9 136.7 9 136.3 8.5Z" fill="rgba(51, 121, 194, 0.58)"></path>
        <path d="M106.8 166.6L107.7 172.9 103.7 171.4C103.3 171.2 102.7 171.4 102.3 172 102.3 172.5 102.5 173.1 102.9 173.3L108.1 175.3 108.9 181.1 98.4 176.9C97.7 176.7 97.1 176.9 97 177.5 96.7 178 96.9 178.6 97.6 178.8L109.2 183.4 110 188.6 100.4 196.2 96.1 194.6 94.3 181.4C94.2 181.3 94 181.1 93.9 181 93.8 180.8 93.4 180.6 93.1 180.6 92.4 180.7 92 181.2 92.3 181.8L93.9 193.8 88.6 191.6 87.6 185.5C87.7 185.4 87.6 185.2 87.5 185.1 87.2 184.8 86.8 184.6 86.4 184.7 85.9 184.8 85.6 185.3 85.5 185.9L86.4 190.8 79.7 188.2C79.3 188 78.7 188.2 78.4 188.7 78.3 189.3 78.5 189.9 78.9 190.1L85.2 192.5 81.9 195.1C81.5 195.5 81.5 196.2 81.8 196.5 82.1 197 82.8 197.2 83.3 196.8L87.5 193.5 92.8 195.6 84.1 202.6C83.6 203 83.5 203.6 83.9 204 84.3 204.5 84.8 204.6 85.3 204.2L95 196.5 99.7 198.1 101.4 210.3 97.8 213.2 86 208.5C85.4 208.2 84.7 208.5 84.6 209.1 84.3 209.6 84.6 210.1 85.2 210.4L95.9 214.6 91.4 218.3 86.1 216.1C85.7 215.9 84.9 216.2 84.7 216.6S84.9 217.8 85.4 218.2L89.5 219.8 84 224.1C83.6 224.5 83.6 225.2 84 225.7 84.3 226 84.9 226.2 85.4 225.8L90.9 221.5 91.7 226C91.8 226.4 92.1 226.9 92.8 226.8 93.3 226.7 93.8 226.1 93.7 225.6L92.8 220 97.3 216.4 99 227.8C99.2 228.4 99.6 228.9 100.3 228.8 100.7 228.7 101.2 228.1 101.1 227.6L99.2 214.9 102.8 212 114.2 216.4 114.8 221.3 105.1 229.1C104.6 229.4 104.6 230 105 230.5 105.3 230.9 106 231.2 106.5 230.8L115.2 223.8 116.2 229.5 111.9 232.8C111.5 233.2 111.4 233.8 111.8 234.2 112.2 234.7 112.7 234.8 113.2 234.4L116.5 231.8 117.4 238.4C117.5 238.9 118.2 239.4 118.6 239.3 119.2 239.1 119.7 238.7 119.5 238.1L118.5 231.2 123 233C123.6 233 124.2 232.8 124.4 232.4 124.6 232 124.5 231.6 124.2 231.2 124.2 231.2 124.1 231.1 123.8 231.1L118.1 228.7 117.2 223 128.5 227.3C129 227.7 129.6 227.4 129.9 226.8 129.9 226.5 129.9 226.2 129.7 225.9 129.5 225.7 129.4 225.6 129.3 225.4L116.9 220.7 116.3 216.1 125.8 208.5 130.7 210.5 132.6 222.8C132.6 223.5 133.2 223.9 133.8 223.6 134.3 223.7 134.7 223.2 134.6 222.5L132.9 211.3 138.4 213.3 139.2 218.8C139.2 219.3 139.8 219.6 140.3 219.7 140.9 219.5 141.4 219.1 141.2 218.5L140.7 214.3 146.5 216.6C147.1 216.9 147.5 216.5 147.9 216 147.9 215.7 147.8 215.3 147.6 215 147.6 215 147.4 214.8 147.3 214.6L141 212.2 145 209.1C145.3 208.9 145.5 208.2 145.1 207.7 144.7 207.2 144 207.3 143.7 207.5L138.9 211.4 133.4 209.4 142.9 201.8C143.4 201.4 143.4 200.7 143 200.2S142 199.7 141.6 200L131.1 208.4 126.6 206.6 124.8 194.4 128.9 191.2 140.9 196C141.5 196 142.1 195.8 142.4 195.3 142.4 195 142.3 194.6 142.1 194.3 142 194.1 141.8 194 141.6 193.9L130.8 189.7 135.3 186.1 140.8 188.1C141.2 188.3 141.8 188.1 142.1 187.6 142.2 187 142 186.4 141.6 186.2L137.2 184.6 142.2 180.6C142.5 180.4 142.6 179.5 142.4 179.2 142 178.7 141.2 178.6 140.8 178.9L135.8 182.9 135.3 178.4C135.2 178.3 135.1 178.1 135 177.9 134.7 177.6 134.3 177.4 134 177.4 133.4 177.6 133.1 178.2 133 178.7L134 184.4 129.4 188 127.7 176.6C127.7 175.8 127.1 175.5 126.7 175.6 126 175.6 125.6 176.2 125.6 176.7L127.5 189.5 123.5 192.7 112 188.3 111.3 183.5 121.8 175.2C122.2 174.8 122.3 174.2 121.9 173.8 121.6 173.3 121 173.2 120.5 173.6L111 181.2 110.2 175.4 115.1 171.6C115.4 171.3 115.5 170.5 115.1 170 114.7 169.5 114 169.6 113.7 169.8L109.8 173 108.8 166.3C108.7 166.1 108.7 166.1 108.6 166 108.3 165.7 107.9 165.5 107.6 165.4 107 165.7 106.7 166.2 106.8 166.6ZM121.6 194.2L122.8 194.8 123 195.9 124.4 205.8 124.6 206.9 123.6 207.7 116 213.8 115 214.5 113.9 214.1 104.7 210.5 103.6 210.1 103.3 208.8 102 199.1 101.7 197.8 102.6 197 110.3 190.9 111.2 190.2 112.5 190.8 121.6 194.2Z" fill="rgba(51, 121, 194, 0.58)"></path>
        <path d="M70.4 94.5L71.9 106.8 69.9 109.6 62.3 108.5 60.9 105.3 65.8 93.9C65.9 93.7 65.9 93.7 65.9 93.6 65.9 93.3 65.8 93 65.4 92.8 64.9 92.7 64.6 92.8 64.4 93.2L60.1 103.2 58.1 98.3 59.9 93.8C59.9 93.8 60 93.7 60 93.7 60 93.4 59.9 93.1 59.5 92.8 59.2 92.7 58.7 92.9 58.5 93.3L57.2 96.2 55.7 92.5C55.6 92.2 55.2 91.9 54.7 92S54.2 92.7 54.3 93.2L55.7 96.7 52.9 95.6C52.5 95.4 52 95.6 51.8 96 51.7 96.3 51.8 96.8 52.2 97L56.7 98.8 58.7 103.9 48.7 99.7C48.2 99.5 47.8 99.7 47.6 100 47.5 100.4 47.6 100.9 48 101.1L59.5 105.9 60.8 109.2 56.2 115.1 52.6 114.6 45.1 104.8C44.8 104.4 44.4 104.4 44 104.6S43.6 105.3 43.9 105.7L50.6 114.3 45.1 113.6 42.3 109.8C42 109.5 41.6 109.4 41.1 109.7S40.7 110.4 40.9 110.7L43 113.3 39 112.7C38.5 112.6 38.2 113 38.1 113.5 38 113.9 38.3 114.3 38.8 114.3L42.8 114.9 40.2 116.8C39.7 117.1 39.7 117.5 40.1 117.9 40.3 118.2 40.8 118.3 41.1 118L44.8 115.2 50.3 116 41.6 122.5C41.2 122.7 41.1 123.3 41.4 123.6S42.1 124 42.4 123.8L52.4 116.2 56 116.7 58.8 123.8 56.6 126.5 44.3 128C43.8 128.1 43.6 128.5 43.5 128.9 43.6 129.4 44 129.6 44.5 129.7L55.3 128.3 52 132.5 47.2 133.1C46.7 133.2 46.5 133.6 46.5 134 46.6 134.4 47 134.7 47.4 134.6L50.5 134.3 48.1 137.5C47.9 137.7 48 138.2 48.2 138.5 48.7 138.7 49.1 138.7 49.3 138.4L51.7 135.2 52.2 138.5C52.3 138.8 52.7 139.2 53 139 53.5 139.1 53.7 138.8 53.7 138.4 53.7 138.4 53.7 138.2 53.7 138.2L53.2 133.5 56.5 129.2 57.9 140C58 140.5 58.2 140.8 58.7 140.7 59.2 140.7 59.4 140.4 59.4 140.1 59.4 139.9 59.4 139.9 59.4 139.9L57.8 127.5 60 124.7 67.6 125.8 68.8 129 64 140.6C63.8 140.9 64.1 141.3 64.3 141.5 64.8 141.7 65.3 141.5 65.5 141.1L69.7 131.1 71.8 136.1 69.9 140.5C69.7 140.9 69.8 141.4 70.3 141.5 70.7 141.7 71.2 141.4 71.4 141.2L72.5 138.1 74 141.8C74.2 142.2 74.7 142.4 75.1 142.3 75.3 142.2 75.5 141.9 75.5 141.6 75.6 141.4 75.6 141.4 75.4 141.3L74 137.6 77 138.8C77.4 139 77.8 138.7 77.9 138.4 78 138.3 78 138.3 78 138.1 78 137.8 77.9 137.5 77.6 137.3L73.2 135.5 71.2 130.5 81.2 134.8C81.6 134.9 82.1 134.8 82.2 134.3 82.3 134.2 82.3 134.2 82.3 134.1 82.4 133.8 82.1 133.4 81.9 133.2L70.3 128.4 69 125.2 73.7 119.2 77.1 119.7 84.6 129.7C84.9 130 85.5 130.1 85.8 129.8S86.2 129 86 128.7L79.3 120 84.7 120.7 87.6 124.5C87.9 124.8 88.3 124.9 88.7 124.6 89 124.4 89.1 123.9 88.8 123.6L86.9 121.1 90.9 121.6C91.2 121.7 91.7 121.4 91.7 121 91.8 120.5 91.4 120 91.1 120L87.1 119.4 89.7 117.5C89.8 117.4 90 117.2 90 117.1 90.1 116.8 89.9 116.6 89.8 116.5 89.5 116.1 89.1 116.1 88.8 116.3L84.9 119.1 79.5 118.4 88.3 111.9C88.5 111.7 88.5 111.6 88.5 111.3 88.6 111.1 88.6 111 88.5 110.8 88.2 110.5 87.6 110.4 87.3 110.7L77.3 118.1 73.9 117.6 71.1 110.7 73.1 107.8 85.6 106.3C85.9 106.2 86.3 106 86.3 105.7 86.3 105.5 86.3 105.5 86.2 105.5 86.2 105.1 85.8 104.7 85.4 104.8L74.6 106.2 77.9 101.8 82.7 101.2C83 101.1 83.2 100.8 83.2 100.6 83.2 100.6 83.3 100.4 83.3 100.4 83.3 100 82.9 99.6 82.4 99.7L79.2 100.1 81.6 97C81.8 96.9 81.8 96.7 81.8 96.6 81.9 96.3 81.8 96 81.6 95.9 81.2 95.6 80.7 95.7 80.4 95.9L78 99.1 77.7 96C77.6 95.5 77.2 95.2 76.7 95.2 76.4 95.4 76 95.8 76.1 96.1L76.7 100.9 73.4 105.1 72 94.3C71.9 93.8 71.5 93.6 71 93.6 70.7 93.7 70.4 94.1 70.4 94.5ZM62.9 110.3L68.7 111.1 69.6 111.2 70 112 72.1 117.3 72.4 118.3 71.9 119 68.4 123.5 67.8 124.2 66.9 124 61.1 123.2 60.2 123.1 59.9 122.3 57.8 117 57.4 116.2 58 115.4 61.5 110.8 62.1 110.2 62.9 110.3Z" fill="rgba(51, 121, 194, 0.58)"></path>
        <path d="M109 70.7L112.4 72.7 110.1 74.1C109.9 74.2 109.7 74.6 109.9 75 110.1 75.2 110.5 75.3 110.7 75.2L113.7 73.4 116.9 75.3 110.8 78.8C110.4 79.1 110.3 79.5 110.5 79.7 110.7 80.1 111 80.2 111.4 79.9L118.1 76 121 77.6 121.1 85.3 118.6 86.8 111.4 82.6C111.3 82.6 111.2 82.6 111 82.6 110.9 82.6 110.7 82.7 110.6 82.8 110.3 83.2 110.4 83.6 110.8 83.7L117.3 87.5 114.2 89.3 110.8 87.5C110.8 87.3 110.7 87.3 110.6 87.3 110.3 87.3 110.1 87.5 110 87.7 109.8 88 110 88.3 110.2 88.6L113 90.1 109.1 92.3C108.9 92.5 108.7 92.8 108.9 93.2 109.1 93.5 109.5 93.6 109.8 93.5L113.4 91.3 113.4 93.9C113.4 94.3 113.8 94.6 114 94.6 114.4 94.6 114.8 94.3 114.8 93.9L114.7 90.6 117.8 88.8 117.9 95.8C117.9 96.2 118.1 96.4 118.5 96.4 118.9 96.4 119.1 96.1 119.1 95.8L119.1 88 121.7 86.4 128.4 90.2 128.4 93.1 121.5 97.1C121.2 97.3 121 97.8 121.3 98 121.4 98.4 121.8 98.4 122.2 98.3L128.4 94.6 128.4 98.2 125.3 100C125 100.1 124.9 100.6 125.1 100.9S125.7 101.2 126.1 101.1L128.4 99.7 128.5 104.1C128.5 104.5 128.8 104.7 129.2 104.7 129.5 104.7 129.8 104.4 129.8 104.1L129.8 99.7 132.3 101.1C132.6 101.2 132.9 101.2 133.2 100.8 133.3 100.5 133.2 100 132.9 99.9L129.8 98.2 129.8 94.6 136 98.2C136.4 98.3 136.8 98.3 137 97.9 137.2 97.6 137 97.1 136.8 97L129.7 93.1 129.7 90.2 136.3 86.3 139 87.9 139 95.6C139 96 139.3 96.3 139.6 96.3 140 96.3 140.4 96 140.4 95.6L140.3 88.6 143.5 90.4 143.5 93.7C143.5 94.1 143.8 94.3 144.1 94.3 144.5 94.3 144.8 94.1 144.8 93.7L144.7 91.1 148.4 93.2C148.6 93.3 149.1 93.2 149.2 92.9 149.4 92.6 149.4 92.2 149 92.1L145.2 89.8 147.8 88.3C148.1 88.1 148.2 87.7 148.1 87.4 148 87.2 147.7 87.1 147.5 87.1 147.5 87.1 147.3 87.1 147.2 87.2L143.8 89.1 140.7 87.4 147.2 83.5C147.6 83.3 147.7 82.9 147.4 82.6 147.3 82.4 147.2 82.3 146.9 82.3 146.8 82.3 146.7 82.3 146.5 82.3L139.5 86.6 136.9 85.1 136.9 77.5 139.8 75.9 146.5 79.7C146.9 80 147.3 79.8 147.4 79.4 147.7 79.2 147.5 78.8 147.1 78.6L141 75.1 144.1 73.2 147.1 75C147.4 75.1 147.7 74.9 148 74.7 148.1 74.3 148.1 73.9 147.7 73.8L145.5 72.5 148.8 70.4C149.2 70.3 149.2 69.9 149.1 69.6 149 69.4 148.7 69.3 148.5 69.3 148.5 69.3 148.3 69.3 148.2 69.3L144.6 71.5 144.6 68.3C144.6 68.1 144.3 67.7 143.9 67.7 143.6 67.7 143.3 68.1 143.3 68.4L143.4 72.2 140.2 74.1 140.2 66.5C140.2 66.1 139.8 65.9 139.4 65.9S138.8 66.1 138.8 66.5L138.9 74.9 136.3 76.4 129.6 72.6 129.6 69.3 136.6 65.3C136.8 65 136.9 64.6 136.8 64.3 136.7 64.1 136.4 64 136.2 64 136 64 135.9 64 135.8 64.2L129.6 67.8 129.5 64.2 132.7 62.3C132.9 62.2 133 61.8 132.9 61.4 132.7 61.2 132.3 61.1 132 61.2L129.5 62.7 129.5 58.7C129.5 58.4 129.1 58.1 128.9 58.1 128.5 58.1 128.1 58.5 128.1 58.7L128.2 62.7 125.8 61.2C125.7 61.2 125.5 61.2 125.4 61.2 125.2 61.2 124.9 61.4 124.8 61.5 124.7 61.9 124.8 62.2 125 62.5L128.2 64.2 128.2 67.8 121.9 64.3C121.5 64 121.2 64.1 121 64.4 120.8 64.8 120.9 65.1 121.2 65.4L128.2 69.3 128.2 72.6 121.6 76.5 119 75 118.9 66.6C118.9 66.3 118.7 66 118.3 66 117.9 66 117.7 66.3 117.7 66.7L117.7 74.3 114.6 72.4 114.6 68.6C114.6 68.3 114.2 67.9 113.8 67.9 113.4 67.9 113.2 68.3 113.2 68.6L113.2 71.7 109.6 69.6C109.5 69.6 109.5 69.6 109.3 69.6 109.1 69.6 108.8 69.7 108.7 69.8 108.6 70.2 108.7 70.6 109 70.7ZM128.2 74.1L129 73.7 129.6 74.1 135 77.2 135.6 77.5 135.6 78.3 135.7 84.4 135.7 85.2 135.1 85.5 129.7 88.7 129.1 89.1 128.3 88.7 123.1 85.6 122.3 85.2 122.3 84.5 122.3 78.4 122.3 77.6 123 77.2 128.2 74.1Z" fill="rgba(51, 121, 194, 0.58)"></path>
        <path d="M145.8 240.8L150.6 247.5 149.3 254.8 143.6 250.1 143 241.8C143 241.8 142.9 241.7 142.9 241.7 142.9 241.5 142.6 241.4 142.4 241.4 142.1 241.4 141.9 241.7 142 241.9L142.6 249.2 139.8 246.9 139.5 243.7C139.5 243.7 139.5 243.6 139.5 243.6 139.4 243.4 139.2 243.3 138.9 243.2 138.6 243.3 138.4 243.5 138.5 243.8L138.7 246 136.7 244.3C136.5 244.1 136.1 244.2 135.9 244.3 135.7 244.5 135.8 244.9 136 245.1L138 246.8 135.8 246.9C135.5 246.9 135.3 247.2 135.4 247.5 135.4 247.8 135.7 248 136 247.9L139.1 247.6 141.8 250 134.6 250.6C134.2 250.6 134 250.9 134.1 251.1 134.1 251.5 134.4 251.7 134.7 251.6L143 250.9 148.6 255.7 141.6 258.2 134 254.7C133.8 254.6 133.5 254.7 133.4 254.9 133.3 255.2 133.4 255.5 133.6 255.6L140.3 258.7 136.9 259.9 134.1 258.6C133.8 258.5 133.5 258.6 133.4 258.8 133.3 259.1 133.4 259.4 133.6 259.5L135.6 260.4 132.9 261.4C132.6 261.4 132.5 261.7 132.6 262 132.7 262.3 133 262.4 133.3 262.3L135.7 261.4 134.8 263.3C134.7 263.6 134.8 263.9 135.1 264S135.6 264 135.7 263.8L137 260.9 140.4 259.7 137.3 266.4C137.2 266.6 137.3 266.9 137.5 267 137.8 267.2 138.1 267.1 138.2 266.8L141.7 259.2 148.7 256.7 147.4 264 140.8 268.6C140.5 268.8 140.5 269.1 140.6 269.4 140.8 269.7 141.1 269.7 141.4 269.6L147.4 265.4 146.7 268.9 144.1 270.7C143.8 270.9 143.8 271.2 143.9 271.5 144.1 271.8 144.4 271.8 144.6 271.7L146.4 270.4 146 273C145.9 273.2 146.1 273.6 146.4 273.6 146.7 273.6 147 273.5 147 273.2L147.4 270.6 148.7 272.4C148.9 272.6 149.2 272.6 149.4 272.5 149.6 272.4 149.7 272.1 149.6 271.9 149.6 271.9 149.6 271.8 149.6 271.8L147.8 269.2 148.4 265.7 152.6 271.6C152.8 271.8 153.1 271.8 153.3 271.8 153.4 271.6 153.5 271.4 153.5 271.2 153.5 271.2 153.4 271.1 153.4 271.1L148.7 264.3 150 257 155.6 261.8 156.3 270.1C156.3 270.4 156.6 270.6 156.8 270.5 157.2 270.5 157.4 270.2 157.3 269.9L156.7 262.7 159.4 265 159.7 268.2C159.7 268.5 160 268.7 160.3 268.6 160.6 268.6 160.8 268.3 160.7 268L160.6 265.8 162.6 267.6C162.8 267.7 163.2 267.7 163.3 267.5 163.5 267.3 163.5 267.1 163.4 266.9 163.4 266.8 163.4 266.7 163.2 266.7L161.2 265 163.4 264.8C163.7 264.8 163.9 264.5 163.8 264.2 163.8 264.2 163.8 264.1 163.8 264.1 163.7 264 163.5 263.8 163.3 263.8L160.1 264.1 157.3 261.8 164.6 261.2C164.9 261.2 165.1 260.9 165 260.6 165 260.6 165 260.5 165 260.5 164.9 260.3 164.6 260.2 164.4 260.2L156.1 260.8 150.5 256.1 157.4 253.6 165 257.1C165.3 257.2 165.5 257.1 165.7 256.9 165.8 256.6 165.7 256.3 165.4 256.2L158.9 253.1 162.2 251.8 165.1 253.2C165.3 253.3 165.6 253.2 165.7 252.9S165.7 252.4 165.5 252.3L163.6 251.4 166 250.5C166.3 250.4 166.4 250.1 166.3 249.8 166.2 249.6 165.9 249.4 165.7 249.5L163.2 250.4 164.1 248.5C164.2 248.4 164.2 248.2 164.2 248.1S164 247.8 163.8 247.8C163.6 247.6 163.3 247.7 163.2 248L161.9 250.8 158.5 252 161.6 245.4C161.7 245.2 161.7 245.1 161.7 244.9 161.6 244.8 161.5 244.7 161.3 244.6 161.1 244.5 160.8 244.6 160.7 244.9L157.1 252.4 150.2 254.9 151.5 247.6 158.3 242.9C158.4 242.7 158.5 242.4 158.5 242.3 158.5 242.3 158.4 242.2 158.4 242.2 158.2 241.9 157.9 241.9 157.7 242L151.8 246.2 152.4 242.6 155.1 240.8C155.2 240.7 155.3 240.4 155.3 240.2 155.3 240.2 155.2 240.1 155.2 240.1 155 239.9 154.7 239.9 154.5 239.9L152.8 241.2 153.2 238.6C153.2 238.5 153.2 238.4 153.2 238.3 153.1 238.1 153 238 152.8 237.9 152.4 237.9 152.2 238 152.2 238.4L151.7 241 150.4 239.2C150.2 238.9 149.9 239 149.7 239 149.5 239.2 149.5 239.5 149.6 239.7L151.4 242.4 150.7 245.9 146.6 240C146.4 239.7 146.1 239.7 145.9 239.8 145.7 240.2 145.6 240.5 145.8 240.8Z" fill="rgba(51, 121, 194, 0.58)"></path>
        <path d="M108.1 20L102.6 23 102.5 18.8C102.6 18.4 102.2 17.9 101.6 17.7 101 17.9 100.5 18.3 100.5 18.7L100.4 24.3 95.3 27 95.5 15.7C95.5 15 95.1 14.5 94.5 14.7 93.9 14.5 93.4 14.9 93.5 15.7L93.2 28.1 88.6 30.7 78.1 24.4 78.2 19.7 89.9 13.5C90 13.3 90.1 13.1 90.2 13 90.3 12.8 90.3 12.4 90.3 12.1 89.9 11.4 89.3 11.3 88.8 11.7L78.2 17.4 78.4 11.7 83.7 8.6C83.9 8.7 84 8.5 84.1 8.4 84.3 8 84.3 7.6 84.1 7.2 83.9 6.8 83.2 6.7 82.7 6.8L78.4 9.3 78.5 2.2C78.5 1.7 78.1 1.2 77.5 1.1 76.9 1.2 76.5 1.6 76.4 2.1L76.3 8.8 72.7 6.6C72.2 6.3 71.6 6.6 71.4 7 71.1 7.5 71.1 8.2 71.6 8.5L76.2 11.3 76 17 66.5 11.3C65.9 10.9 65.4 11.1 65.1 11.6 64.8 12.1 64.9 12.7 65.4 13L76 19.4 76.1 24.3 65.3 30.2 61.4 27.8 61.6 15.1C61.7 14.5 61.1 13.9 60.6 14 60 13.9 59.7 14.4 59.5 15L59.3 26.6 54.3 23.6 54.5 17.8C54.6 17.4 54 16.8 53.5 16.8S52.5 17.3 52.4 17.9L52.3 22.3 46.3 18.7C45.8 18.4 45.1 18.7 44.8 19.2 44.6 19.6 44.6 20.3 45.2 20.6L51.2 24.2 47.2 26.5C46.8 26.7 46.5 27.3 46.8 27.9 47.1 28.3 47.8 28.5 48.2 28.3L53.2 25.5 58.2 28.5 48 34C47.6 34.4 47.2 34.9 47.6 35.6 47.8 36 48.6 36.2 49 36L60.2 29.7 64.2 32.1 64 44.4 59.6 46.6 49 40.2C48.5 39.9 47.9 40 47.6 40.5 47.3 41 47.3 41.8 47.8 42.1L57.4 47.9 52.5 50.7 47.8 47.9C47.3 47.6 46.8 47.7 46.5 48.2 46.1 48.8 46.3 49.3 46.8 49.6L50.4 51.8 44.5 55C44.1 55.2 43.9 56 44.1 56.4 44.5 56.9 45 57.2 45.5 56.8L51.7 53.5 51.6 58.3C51.7 58.9 52.1 59.4 52.6 59.4 53 59.4 53.4 59.2 53.6 58.9 53.6 58.9 53.7 58.7 53.6 58.4L53.9 52.2 58.8 49.4 58.8 61.5C58.6 62.1 59 62.6 59.8 62.6 60 62.5 60.3 62.5 60.5 62.1 60.6 61.9 60.7 61.8 60.8 61.6L60.9 48.3 65 46.1 75.5 52.4 75.3 57.7 64.4 63.8C63.8 64.1 63.6 64.7 64 65.2 64.2 65.7 64.8 65.9 65.4 65.6L75.3 60.1 75.3 65.9 70.4 68.5C70 68.8 69.9 69.4 70 70 70.4 70.4 71 70.7 71.4 70.3L75.2 68.4 75.1 74.7C75 75.3 75.5 75.6 76.1 75.7 76.4 75.7 76.8 75.4 77 75.1 77 75.1 77.1 74.9 77.2 74.7L77.3 68 81.6 70.6C81.9 70.8 82.6 70.8 82.9 70.3 83.2 69.8 82.9 69.1 82.6 68.9L77.3 65.7 77.3 59.9 87.7 66.2C88.3 66.5 88.9 66.2 89.2 65.7S89.4 64.6 88.9 64.3L77.4 57.4 77.5 52.5 88.3 46.6 92.8 49.3 92.4 62.2C92.6 62.8 93 63.3 93.6 63.4 93.9 63.3 94.3 63.1 94.5 62.8 94.6 62.6 94.7 62.4 94.6 62.1L94.8 50.6 99.8 53.6 99.8 59.4C99.7 59.8 100.1 60.3 100.8 60.5 101.3 60.3 101.8 59.9 101.8 59.5L101.8 54.8 107.3 58.1C107.7 58.3 108.5 58.1 108.7 57.8 109 57.3 108.8 56.4 108.4 56.2L103 52.9 107 50.9C107.1 50.7 107.2 50.6 107.3 50.4 107.5 50.1 107.5 49.6 107.5 49.3 107.1 48.9 106.4 48.7 105.9 48.9L100.9 51.7 96 48.7 106.1 43.1C106.7 42.8 106.9 42.2 106.6 41.8 106.3 41.2 105.7 41 105.2 41.2L93.9 47.5 89.4 44.8 89.6 32.5 93.8 30.1 105.3 37.1C105.8 37.4 106.4 37.2 106.7 36.7 107 36.2 106.9 35.7 106.3 35.3L95.9 29 101.1 26.3 106.4 29.5C106.7 29.7 107.5 29.5 107.8 29 108.1 28.5 107.8 27.8 107.5 27.6L103.2 25 109.1 21.8C109.2 21.7 109.2 21.7 109.3 21.5 109.5 21.2 109.6 20.7 109.5 20.4 109.1 19.9 108.5 19.8 108.1 20ZM87.4 43.5L87.3 44.9 86.3 45.4 77.5 50.2 76.5 50.7 75.5 50.1 67.1 45 66.1 44.4 66.1 43.3 66.2 33.3 66.2 32.1 67.4 31.4 76 26.8 77.1 26.1 78.1 26.7 86.5 31.8 87.6 32.4 87.5 33.7 87.4 43.5Z" fill="rgba(51, 121, 194, 0.58)"></path>
    </g>
    <defs>
        <mask id="SvgjsMask1014">
            <rect width="350" height="450" fill="#ffffff"></rect>
        </mask>
        <filter id="SvgjsFilter1015">
            <feGaussianBlur stdDeviation="1"></feGaussianBlur>
        </filter>
    </defs>
</svg>