<?xml version="1.0" ?><svg viewBox="0 0 24 24" xmlns="http://www.w3.org/2000/svg"><g id="Line"><path d="M21.19,6A3,3,0,0,0,19,5H16.9A5,5,0,0,0,7.1,5H5A3,3,0,0,0,2,8.19l.63,10.12a5,5,0,0,0,5,4.69h8.74a5,5,0,0,0,5-4.69L22,8.19A3,3,0,0,0,21.19,6ZM12,3a3,3,0,0,1,2.82,2H9.18A3,3,0,0,1,12,3Zm7.36,15.19a3,3,0,0,1-3,2.81H7.63a3,3,0,0,1-3-2.81L4,8.06A1,1,0,0,1,5,7H7V8A1,1,0,0,0,9,8V7h6V8a1,1,0,0,0,2,0V7h2a1,1,0,0,1,1,1.06Z"/><path d="M15.34,11.33l-4.1,4L9.66,13.82a1,1,0,0,0-1.41,1.43l2.28,2.24a1,1,0,0,0,1.41,0l4.81-4.73a1,1,0,1,0-1.41-1.43Z"/></g></svg>